# xmcd
#
# Track frame offsets:
#	150
#	29588
#	47286
#	76698
#	100670
#	134693
#	175934
#	210790
#	229666
#	253230
#	280983
#	303566
#
# Disc length: 4304 seconds
#
# Revision: 1
# Processed by: cddbd v1.5.1PL0 Copyright (c) Steve Scherf et al.
# Submitted via: CDmax 2.0
#
DISCID=9a10ce0c
DTITLE=Lonie Walker - Change Is Good
DYEAR=2001
DGENRE=Blues
TTITLE0=Living
TTITLE1=False Security
TTITLE2=Once In A While
TTITLE3=I'll Drop My Pride
TTITLE4=Change Is Good
TTITLE5=Song For Raphael
TTITLE6=Summer Solstice
TTITLE7=Your Smile
TTITLE8=Baby Blue Blues
TTITLE9=Who's Gonna Tell Her The Ship Is Sinking?
TTITLE10=Dreamin'
TTITLE11=Earthquake and Sugar
EXTD=
EXTT0=
EXTT1=
EXTT2=
EXTT3=
EXTT4=
EXTT5=
EXTT6=
EXTT7=
EXTT8=
EXTT9=
EXTT10=
EXTT11=
PLAYORDER=
